<svg width="71" height="68" viewBox="0 0 71 68" fill="none" xmlns="http://www.w3.org/2000/svg">
<circle cx="34.5463" cy="16.705" r="6.19177" fill="#FFD700"/>
<line x1="34.6458" y1="18.205" x2="34.6458" y2="44.2743" stroke="#FFD700" stroke-width="3" stroke-linecap="round"/>
<line x1="33.3178" y1="38.1695" x2="30.0448" y2="28.2959" stroke="#FFD700" stroke-width="3" stroke-linecap="round"/>
<line x1="36.4747" y1="37.8679" x2="38.9002" y2="28.8398" stroke="#FFD700" stroke-width="3" stroke-linecap="round"/>
<line x1="30.0911" y1="27.6637" x2="39.2556" y2="27.6637" stroke="#FFD700" stroke-width="3" stroke-linecap="round"/>
<line x1="27.7759" y1="56.936" x2="34.581" y2="44.7452" stroke="#FFD700" stroke-width="3" stroke-linecap="round"/>
<line x1="1.5" y1="-1.5" x2="15.4616" y2="-1.5" transform="matrix(-0.487417 -0.87317 -0.87317 0.487417 40.7556 58.9769)" stroke="#FFD700" stroke-width="3" stroke-linecap="round"/>
<path d="M35.2139 1.5C53.8942 1.50013 68.9277 15.9955 68.9277 33.7432C68.9277 51.4908 53.8942 65.9862 35.2139 65.9863C16.5334 65.9863 1.50003 51.4909 1.5 33.7432C1.5 15.9955 16.5334 1.5 35.2139 1.5Z" stroke="#FFD700" stroke-width="3"/>
</svg>
